<?xml version="1.0" encoding="UTF-8" standalone="no"?>
<!-- Created with Inkscape (http://www.inkscape.org/) -->
<svg
   xmlns:dc="http://purl.org/dc/elements/1.1/"
   xmlns:cc="http://creativecommons.org/ns#"
   xmlns:rdf="http://www.w3.org/1999/02/22-rdf-syntax-ns#"
   xmlns:svg="http://www.w3.org/2000/svg"
   xmlns="http://www.w3.org/2000/svg"
   xmlns:xlink="http://www.w3.org/1999/xlink"
   xmlns:sodipodi="http://sodipodi.sourceforge.net/DTD/sodipodi-0.dtd"
   xmlns:inkscape="http://www.inkscape.org/namespaces/inkscape"
   width="128"
   height="128"
   id="svg16209"
   sodipodi:version="0.32"
   inkscape:version="0.46"
   version="1.0"
   sodipodi:docbase="/home/david/svn/Oxygen/templates"
   sodipodi:docname="action_32x32.template.svg"
   inkscape:output_extension="org.inkscape.output.svg.inkscape"
   inkscape:export-filename="/home/jacksonje/Projects/rekollect/icons/16x16/rekollect.png"
   inkscape:export-xdpi="90"
   inkscape:export-ydpi="90">
  <defs
     id="defs16211">
    <inkscape:path-effect
       effect="bend_path"
       id="path-effect3409"
       prop_scale="1.07" />
    <inkscape:perspective
       sodipodi:type="inkscape:persp3d"
       inkscape:vp_x="0 : 64 : 1"
       inkscape:vp_y="0 : 1000 : 0"
       inkscape:vp_z="128 : 64 : 1"
       inkscape:persp3d-origin="64 : 42.666667 : 1"
       id="perspective2611" />
    <linearGradient
       inkscape:collect="always"
       id="linearGradient3291">
      <stop
         style="stop-color:#000000;stop-opacity:1;"
         offset="0"
         id="stop3293" />
      <stop
         style="stop-color:#000000;stop-opacity:0;"
         offset="1"
         id="stop3295" />
    </linearGradient>
    <radialGradient
       inkscape:collect="always"
       xlink:href="#linearGradient3291"
       id="radialGradient3336"
       gradientUnits="userSpaceOnUse"
       gradientTransform="matrix(1,0,0,0.197802,0,92.82166)"
       cx="63.912209"
       cy="115.70919"
       fx="63.912209"
       fy="115.7093"
       r="63.912209" />
    <linearGradient
       id="rect3244_12_"
       gradientUnits="userSpaceOnUse"
       x1="181.9985"
       y1="-85.999496"
       x2="181.9985"
       y2="-17.9995"
       gradientTransform="matrix(0,-1,1,0,-483.1434,-701.4306)">
      <stop
         offset="0"
         style="stop-color:#A4C0E4"
         id="stop174" />
      <stop
         offset="0.25"
         style="stop-color:#D1DFF1"
         id="stop176" />
      <stop
         offset="0.85"
         style="stop-color:#FFFFFF"
         id="stop178" />
    </linearGradient>
    <linearGradient
       id="polygon3293_12_"
       gradientUnits="userSpaceOnUse"
       x1="645.99847"
       y1="-532.10211"
       x2="645.99847"
       y2="-543.35211"
       gradientTransform="matrix(0,-4,-4,0,-2060.408,2643.994)">
      <stop
         offset="0"
         style="stop-color:#6193CF"
         id="stop182" />
      <stop
         offset="1"
         style="stop-color:#EEEEEE"
         id="stop184" />
    </linearGradient>
    <linearGradient
       id="XMLID_1_"
       gradientUnits="userSpaceOnUse"
       x1="84.965302"
       y1="60.0005"
       x2="47.999001"
       y2="60.0005">
      <stop
         offset="0"
         style="stop-color:#2C72C7"
         id="stop188" />
      <stop
         offset="0.15"
         style="stop-color:#6193CF"
         id="stop190" />
      <stop
         offset="1"
         style="stop-color:#A4C0E4"
         id="stop192" />
    </linearGradient>
    <linearGradient
       id="XMLID_2_"
       gradientUnits="userSpaceOnUse"
       x1="3.9985001"
       y1="60"
       x2="47.998501"
       y2="60">
      <stop
         offset="0"
         style="stop-color:#6193CF"
         id="stop197" />
      <stop
         offset="0.1543"
         style="stop-color:#6897D1"
         id="stop199" />
      <stop
         offset="0.3722"
         style="stop-color:#7AA4D7"
         id="stop201" />
      <stop
         offset="0.6277"
         style="stop-color:#98B9E0"
         id="stop203" />
      <stop
         offset="0.9098"
         style="stop-color:#C2D5EC"
         id="stop205" />
      <stop
         offset="1"
         style="stop-color:#D1DFF1"
         id="stop207" />
    </linearGradient>
    <linearGradient
       id="XMLID_3_"
       gradientUnits="userSpaceOnUse"
       x1="47.998501"
       y1="60.0005"
       x2="3.9985001"
       y2="60.0005"
       gradientTransform="translate(-617.1419,-943.4291)">
      <stop
         offset="0"
         style="stop-color:#A4C0E4"
         id="stop212" />
      <stop
         offset="0.7"
         style="stop-color:#FFFFFF"
         id="stop214" />
    </linearGradient>
    <linearGradient
       id="XMLID_4_"
       gradientUnits="userSpaceOnUse"
       x1="100.936"
       y1="59.9995"
       x2="46.590199"
       y2="59.9995">
      <stop
         offset="0"
         style="stop-color:#A4C0E4"
         id="stop227" />
      <stop
         offset="1"
         style="stop-color:#FFFFFF"
         id="stop229" />
    </linearGradient>
    <linearGradient
       inkscape:collect="always"
       xlink:href="#rect3244_12_"
       id="linearGradient16281"
       gradientUnits="userSpaceOnUse"
       gradientTransform="matrix(0,-1,1,0,-483.1434,-701.4306)"
       x1="181.9985"
       y1="-85.999496"
       x2="181.9985"
       y2="-17.9995" />
    <linearGradient
       inkscape:collect="always"
       xlink:href="#polygon3293_12_"
       id="linearGradient16283"
       gradientUnits="userSpaceOnUse"
       gradientTransform="matrix(0,-4,-4,0,-2060.408,2643.994)"
       x1="645.99847"
       y1="-532.10211"
       x2="645.99847"
       y2="-543.35211" />
    <linearGradient
       inkscape:collect="always"
       xlink:href="#XMLID_1_"
       id="linearGradient16285"
       gradientUnits="userSpaceOnUse"
       x1="84.965302"
       y1="60.0005"
       x2="47.999001"
       y2="60.0005" />
    <linearGradient
       inkscape:collect="always"
       xlink:href="#XMLID_2_"
       id="linearGradient16287"
       gradientUnits="userSpaceOnUse"
       x1="3.9985001"
       y1="60"
       x2="47.998501"
       y2="60" />
    <linearGradient
       inkscape:collect="always"
       xlink:href="#XMLID_3_"
       id="linearGradient16289"
       gradientUnits="userSpaceOnUse"
       gradientTransform="translate(-617.1419,-943.4291)"
       x1="47.998501"
       y1="60.0005"
       x2="3.9985001"
       y2="60.0005" />
    <linearGradient
       inkscape:collect="always"
       xlink:href="#XMLID_4_"
       id="linearGradient16291"
       gradientUnits="userSpaceOnUse"
       x1="100.936"
       y1="59.9995"
       x2="46.590199"
       y2="59.9995" />
  </defs>
  <sodipodi:namedview
     id="base"
     pagecolor="#ffffff"
     bordercolor="#666666"
     borderopacity="1.0"
     gridtolerance="10"
     guidetolerance="10"
     objecttolerance="10"
     inkscape:pageopacity="0.0"
     inkscape:pageshadow="2"
     inkscape:zoom="4.7011552"
     inkscape:cx="71.712825"
     inkscape:cy="56.928678"
     inkscape:document-units="px"
     inkscape:current-layer="layer1"
     width="128px"
     height="128px"
     inkscape:showpageshadow="false"
     inkscape:window-width="1920"
     inkscape:window-height="1056"
     inkscape:window-x="1276"
     inkscape:window-y="-5"
     showgrid="true">
    <inkscape:grid
       id="GridFromPre046Settings"
       type="xygrid"
       originx="0px"
       originy="0px"
       spacingx="4px"
       spacingy="4px"
       color="#0000ff"
       empcolor="#0000ff"
       opacity="0.2"
       empopacity="0.4"
       empspacing="0"
       visible="true"
       enabled="true" />
  </sodipodi:namedview>
  <metadata
     id="metadata16214">
    <rdf:RDF>
      <cc:Work
         rdf:about="">
        <dc:format>image/svg+xml</dc:format>
        <dc:type
           rdf:resource="http://purl.org/dc/dcmitype/StillImage" />
      </cc:Work>
    </rdf:RDF>
  </metadata>
  <g
     inkscape:label="Layer 1"
     inkscape:groupmode="layer"
     id="layer1">
    <path
       style="fill:#ffaa00;fill-rule:evenodd;stroke:#000000;stroke-width:0.92000002000000003;stroke-linecap:butt;stroke-linejoin:miter;stroke-miterlimit:4;stroke-opacity:1"
       d="M 20.03125 7.96875 C 20.03125 45.322917 20.03125 82.677083 20.03125 120.03125 C 49.333333 120.03125 78.635417 120.03125 107.9375 120.03125 C 108.05208 82.65625 108.16667 45.28125 108.28125 7.90625 C 78.864583 7.9270833 49.447917 7.9479167 20.03125 7.96875 z "
       id="rect3387" />
    <path
       sodipodi:type="arc"
       style="fill:#000000;stroke:#000000;stroke-width:1;stroke-miterlimit:4;stroke-dasharray:none;stroke-opacity:1"
       id="path3418"
       sodipodi:cx="38"
       sodipodi:cy="26"
       sodipodi:rx="6"
       sodipodi:ry="6"
       d="M 44,26 A 6,6 0 1 1 32,26 A 6,6 0 1 1 44,26 z"
       transform="matrix(1.3333333,0,0,1.3333333,-10.5,-6.5000019)" />
    <path
       d="M 44,26 A 6,6 0 1 1 32,26 A 6,6 0 1 1 44,26 z"
       sodipodi:ry="6"
       sodipodi:rx="6"
       sodipodi:cy="26"
       sodipodi:cx="38"
       id="path3420"
       style="fill:#000000;stroke:#000000;stroke-width:1;stroke-miterlimit:4;stroke-dasharray:none;stroke-opacity:1"
       sodipodi:type="arc"
       transform="matrix(1.3333333,0,0,1.3333333,-10.5,16.83333)" />
    <path
       transform="matrix(1.3333333,0,0,1.3333333,-10.5,40.166666)"
       sodipodi:type="arc"
       style="fill:#000000;stroke:#000000;stroke-width:1;stroke-miterlimit:4;stroke-dasharray:none;stroke-opacity:1"
       id="path3422"
       sodipodi:cx="38"
       sodipodi:cy="26"
       sodipodi:rx="6"
       sodipodi:ry="6"
       d="M 44,26 A 6,6 0 1 1 32,26 A 6,6 0 1 1 44,26 z" />
    <path
       d="M 44,26 A 6,6 0 1 1 32,26 A 6,6 0 1 1 44,26 z"
       sodipodi:ry="6"
       sodipodi:rx="6"
       sodipodi:cy="26"
       sodipodi:cx="38"
       id="path3424"
       style="fill:#000000;stroke:#000000;stroke-width:1;stroke-miterlimit:4;stroke-dasharray:none;stroke-opacity:1"
       sodipodi:type="arc"
       transform="matrix(1.3333333,0,0,1.3333333,-10.5,63.5)" />
    <path
       style="fill:#000000;stroke:#000000;stroke-width:1;stroke-miterlimit:4;stroke-dasharray:none;stroke-opacity:1"
       id="path3428"
       d="M 57.032738,28.430689 C 59.091082,27.923933 61.047523,27.153472 62.906999,26.141499 C 56.764933,29.738338 59.82354,27.980911 61.096958,26.983689 C 61.509419,26.660688 61.903697,26.324318 62.332124,26.022339 C 63.865592,25.241905 65.333817,24.317216 66.932529,23.681037 C 67.092404,23.617418 67.196042,23.907282 67.296887,24.046701 C 67.805274,24.749551 67.895904,25.727836 68.048607,26.551826 C 68.288341,27.741867 68.465184,28.969488 69.191121,29.972705 C 69.906071,30.860122 70.992706,31.135538 72.058786,31.356936 C 73.246388,31.646597 74.341167,31.44447 75.458928,31.018708 C 77.19187,30.176144 76.818813,30.343554 72.234244,32.894322 C 72.089669,32.974761 72.514861,32.718358 72.647801,32.619873 C 72.990191,32.366225 73.232763,32.073006 73.481237,31.7324 C 73.873905,31.13932 74.162764,30.49788 74.330257,29.808087 C 74.496973,29.126186 74.764745,28.474637 74.983134,27.807593 C 75.158137,27.292297 75.473074,26.851804 75.638609,26.333618 C 75.765244,25.653845 75.827924,24.964471 75.937367,24.280658 C 76.126791,22.177451 78.508699,19.586257 80.871372,20.519167 C 81.676088,21.267289 81.874452,22.465938 82.100157,23.491947 C 82.356662,25.024059 82.464227,26.575904 82.649118,28.118208 C 82.814007,28.65019 82.716062,29.678911 83.297297,30.014391 C 83.378082,30.061019 83.475642,30.069113 83.564815,30.096474 C 84.500526,30.312499 85.422619,30.156948 86.31683,29.854827 C 86.486752,29.786014 86.657976,29.720333 86.826597,29.64839 C 87.208334,29.485519 88.296577,28.877709 87.936232,29.083626 C 81.247402,32.905919 83.958635,31.367082 85.426499,30.455867 C 85.731747,30.290232 85.997162,30.061267 86.296121,29.885935 C 87.819728,28.992379 89.37054,28.144964 90.880715,27.22889 C 92.165577,26.449493 88.27752,28.731144 86.972223,29.475811 C 86.877486,29.529858 87.154102,29.355086 87.248763,29.300907 C 88.751969,28.440547 90.259942,27.588543 91.765531,26.732361 C 92.476095,26.647338 92.915189,27.36337 93.440028,27.744373 C 94.071096,28.201073 94.806558,28.395006 95.565731,28.49803 C 96.229534,28.630997 96.791662,28.497762 97.430939,28.363286 C 97.526763,28.347752 97.622588,28.332217 97.718413,28.316683 L 93.76247,31.298673 C 93.668434,31.316923 93.574398,31.335174 93.480362,31.353424 C 92.826488,31.475307 92.174376,31.45798 91.519184,31.334066 C 90.706771,31.166453 89.933803,30.885944 89.261908,30.384886 C 88.794615,30.018783 88.50466,29.475666 87.895912,29.821595 C 89.218911,29.054524 90.542486,28.288444 91.86491,27.520382 C 91.960333,27.464961 91.672264,27.62809 91.57693,27.683665 C 90.065947,28.564491 88.548723,29.434758 87.045981,30.329572 C 85.774984,31.086392 89.599373,28.835185 90.881664,28.097663 C 91.189623,27.920538 89.578771,28.897282 89.995827,28.690282 C 87.519511,30.160768 85.166747,31.933195 82.421252,32.856085 C 81.432107,33.096642 80.408187,33.189165 79.436326,32.814703 C 79.311586,32.735933 79.17418,32.67433 79.062105,32.578393 C 78.451579,32.055779 78.468372,31.100473 78.312228,30.388321 C 78.157861,28.857056 78.039949,27.319852 77.804075,25.799174 C 77.746358,25.535703 77.294958,23.326763 76.852243,23.451726 C 75.766664,24.767574 76.747189,23.557066 80.831619,21.106686 C 80.887297,21.073283 80.712976,21.16536 80.667673,21.211873 C 80.434613,21.451155 80.407365,21.795684 80.37267,22.107662 C 80.26405,22.803371 80.15608,23.491657 80.108817,24.19436 C 79.981493,24.836221 79.7693,25.164982 79.473776,25.725466 C 79.190934,26.341928 79.04891,27.028859 78.781896,27.653855 C 78.648746,28.40553 78.389427,29.095464 78.005205,29.757054 C 77.919712,29.892689 77.640787,30.343066 77.544434,30.463087 C 77.378105,30.67027 77.046932,30.994529 76.820482,31.128294 C 72.426458,33.723851 73.759992,33.159958 71.588125,34.029901 C 70.407284,34.386629 69.237781,34.470535 68.031666,34.14641 C 66.859908,33.853412 65.709982,33.466841 64.943675,32.471838 C 64.216461,31.382322 63.98904,30.11936 63.740137,28.850818 C 63.61984,28.242945 63.543932,27.58851 63.300585,27.012509 C 63.249877,26.892484 63.194931,26.769455 63.10814,26.672271 C 63.063215,26.621967 62.866313,26.626124 62.92328,26.590021 C 64.232398,25.760376 65.599904,25.026663 66.938216,24.244984 C 65.927698,24.759118 65.178603,25.647092 64.203916,26.226394 C 62.531702,27.22027 60.838452,28.178321 59.15572,29.154284 C 57.224318,30.131006 55.205343,30.901011 53.098044,31.409822 L 57.032738,28.430689 z" />
    <path
       style="fill:#000000;stroke:#000000;stroke-width:1;stroke-miterlimit:4;stroke-dasharray:none;stroke-opacity:1"
       id="path3436"
       d="M 58.65883,51.424628 C 59.834223,51.196036 61.046025,51.058826 62.122077,50.510085 C 62.294491,50.429157 62.471017,50.356465 62.639319,50.267301 C 62.816951,50.173194 62.982171,50.056984 63.158729,49.960878 C 65.891365,48.47343 57.982445,53.062903 60.566403,51.459696 C 60.723935,51.361956 60.879957,51.261803 61.036733,51.162857 C 63.018562,49.695711 65.130683,48.64176 67.321266,47.423358 C 68.302137,48.140487 68.549619,49.433233 68.887958,50.535156 C 69.13092,51.578928 69.391257,52.630127 70.149245,53.421153 C 71.347308,54.073164 72.749754,53.571364 73.97387,53.250769 C 76.657818,52.582255 79.17302,51.436157 81.634672,50.201965 C 82.223214,50.001192 82.939345,49.41448 83.622513,49.583836 C 84.142985,49.71286 84.332051,50.294503 84.513914,50.719756 C 84.800623,51.180949 84.821685,52.589744 85.336572,52.769562 C 86.817164,51.740324 89.428816,50.345817 82.205811,54.509882 C 82.826737,54.136632 83.406662,53.701608 83.994257,53.278741 C 86.0008,51.743153 88.071314,50.13651 90.515018,49.37082 C 91.532536,49.203597 92.567986,49.536862 93.577563,49.683903 C 94.081094,49.757837 94.588097,49.797793 95.095352,49.83399 L 91.090414,52.693601 C 90.579866,52.645754 90.070088,52.592135 89.56368,52.50961 C 88.595592,52.3595 87.579804,52.05555 86.627442,52.417568 C 84.93182,53.19073 86.207415,52.62275 90.14529,50.322647 C 90.273749,50.247614 89.883483,50.464617 89.758482,50.545279 C 89.335656,50.818121 88.975081,51.16801 88.570632,51.465259 C 87.996493,51.891698 87.427721,52.335426 86.822363,52.708877 C 85.331961,53.579953 83.842617,54.452841 82.351157,55.322104 C 82.142528,55.443698 81.895955,55.556577 81.650018,55.574512 C 81.391674,55.593352 81.373882,55.542032 81.143581,55.423507 C 80.518306,54.811229 80.551101,53.903242 80.215976,53.129807 C 80.154054,52.979357 80.065377,52.660066 79.891772,52.55514 C 79.469616,52.299991 78.2231,53.105715 77.871274,53.209467 C 75.38495,54.420182 72.831656,55.498467 70.143267,56.180558 C 68.732347,56.520596 67.181973,56.960039 65.927902,55.978259 C 65.167436,55.091576 64.834001,54.01429 64.603754,52.880678 C 64.459426,52.406449 64.03307,50.66719 63.541919,50.432871 C 63.501954,50.413804 63.458392,50.462299 63.416628,50.477013 C 71.074624,46.036255 67.226611,48.129991 65.612727,49.380482 C 63.26232,50.927873 60.818817,52.356014 58.273129,53.555706 C 57.125592,53.976651 55.914133,54.145798 54.72554,54.415883 L 58.65883,51.424628 z" />
    <path
       style="fill:#000000;stroke:#000000;stroke-width:1;stroke-miterlimit:4;stroke-dasharray:none;stroke-opacity:1"
       id="path3438"
       d="M 58.284136,75.750916 C 60.054854,75.415387 66.077349,71.874267 59.514236,75.587534 C 61.55202,74.413036 63.484721,73.079847 65.389216,71.704116 C 65.912925,71.378957 66.357442,70.929369 66.894967,70.624645 C 70.079869,68.819122 70.34211,67.12127 72.4073,68.537846 C 73.626751,69.638526 74.449733,71.03938 75.208,72.474803 C 75.833467,73.756408 76.426016,75.063298 77.517879,76.01339 C 78.440012,76.638097 79.540463,76.870001 80.63353,76.957278 C 83.032786,76.974698 85.36753,76.347895 87.687092,75.809603 C 88.720516,75.612146 90.558889,74.720118 91.560414,75.394554 C 91.674694,75.471511 91.757511,75.587121 91.85606,75.683405 C 92.409413,76.406622 92.450155,76.39009 93.304039,76.127964 C 94.248662,75.702052 95.136156,75.166439 96.05752,74.695762 C 96.997989,74.249733 98.047588,74.264191 99.065133,74.239428 C 100.62345,74.261336 102.17445,74.103963 103.72848,74.01422 C 104.70478,73.962262 104.22894,73.986027 105.15598,73.942463 L 101.21014,76.836125 C 100.29812,76.874224 100.76693,76.852501 99.803765,76.902041 C 98.243234,77.000506 96.684165,77.123073 95.119624,77.131163 C 94.114092,77.190353 93.109271,77.263652 92.216818,77.78041 C 91.296984,78.276571 90.381533,78.816484 89.370068,79.102849 C 88.499464,79.188466 88.163227,78.966899 87.651812,78.293545 C 86.808126,77.658969 84.802501,78.56581 83.880349,78.708618 C 81.506994,79.245806 79.113587,79.885277 76.658598,79.783263 C 75.475611,79.635452 74.280871,79.374756 73.337939,78.597869 C 72.265046,77.553463 71.624961,76.229996 70.993333,74.887394 C 70.277265,73.535857 69.503376,72.182473 68.277459,71.223313 C 68.158914,71.173311 68.049016,71.092674 67.921822,71.073308 C 67.816411,71.057257 67.710953,71.105104 67.605519,71.121002 C 68.897556,70.364457 70.189593,69.607912 71.481631,68.851367 C 71.631913,68.762594 71.168195,69.006949 71.022267,69.102711 C 70.638683,69.354428 70.312526,69.687689 69.913187,69.917836 C 67.967407,71.285208 66.045984,72.688799 63.974102,73.866175 C 60.897308,75.656866 57.83293,77.774793 54.353823,78.756261 L 58.284136,75.750916 z" />
    <path
       style="fill:#000000;stroke:#000000;stroke-width:1;stroke-miterlimit:4;stroke-dasharray:none;stroke-opacity:1"
       id="path3440"
       d="M 59.945556,98.584394 C 61.316692,97.868404 62.844154,97.059117 57.463685,100.04099 C 57.065793,100.2615 58.245347,99.575293 58.631768,99.335246 C 59.911494,98.540276 60.944315,97.724018 62.060429,96.716098 C 63.528853,95.300173 64.743306,93.653798 66.163625,92.193612 C 67.664386,90.867142 67.382223,91.073984 71.027362,89.563825 C 71.297334,89.451977 71.899371,90.943663 71.972678,91.140733 C 72.255749,91.946535 72.707105,92.672114 73.397331,93.182086 C 74.122827,93.594692 74.957139,93.520087 75.738812,93.330883 C 76.681745,93.002163 77.138955,93.28865 77.780908,93.980528 C 78.21982,94.62945 78.601252,95.314566 79.02133,95.976455 C 79.509825,96.641699 80.254416,96.33747 80.903185,96.080982 C 81.435053,95.891585 82.041332,95.264387 82.659634,95.37577 C 82.931893,95.424816 83.225967,95.686625 83.432982,95.843197 C 84.270917,96.520189 84.598694,97.548056 85.102048,98.455535 C 85.901353,99.79194 87.165861,99.474299 88.496263,99.253707 C 91.394308,98.231872 94.217059,97.001529 97.060231,95.835484 C 98.405271,95.274651 99.770843,94.748969 101.22237,94.561739 C 101.98128,94.495657 102.74446,94.523599 103.5052,94.53211 C 103.95639,94.583952 104.37261,94.51026 104.80779,94.408908 L 100.85357,97.391676 C 100.40527,97.451148 99.957262,97.445659 99.50547,97.431977 C 98.762054,97.425421 98.014394,97.410694 97.276805,97.52065 C 95.898518,97.765529 94.592327,98.273825 93.298308,98.796466 C 90.428543,99.945189 87.608107,101.25286 84.643707,102.13711 C 82.972987,102.34019 81.796996,102.48365 80.826582,100.90923 C 80.376059,100.06385 80.096895,99.090043 79.277128,98.510887 C 79.181899,98.461828 79.095057,98.390895 78.991441,98.363709 C 78.412145,98.211722 77.582539,99.009107 77.011239,99.084928 C 76.13377,99.272071 75.284034,99.305317 74.743834,98.466631 C 74.350544,97.830064 74.003835,97.16209 73.564145,96.557478 C 72.921507,95.939837 72.616952,96.126709 71.802101,96.294955 C 70.890238,96.392824 69.981564,96.38208 69.215052,95.80822 C 68.502154,95.195508 67.983651,94.422215 67.667441,93.533903 C 67.609371,93.382516 67.44844,92.940894 67.357802,92.780188 C 67.308535,92.692836 67.25606,92.603268 67.181005,92.536753 C 67.138011,92.49865 66.96979,92.509971 67.018464,92.479457 C 68.223059,91.724306 72.633489,89.155591 70.699544,90.325077 C 69.152792,91.719869 67.952107,93.44558 66.473095,94.908496 C 65.649811,95.68781 65.195219,96.167256 64.277217,96.839378 C 62.293772,98.291572 58.418481,100.36937 56.864162,101.26493 C 56.613896,101.40913 56.358375,101.54401 56.105481,101.68355 L 59.945556,98.584394 z" />
  </g>
</svg>
